<?xml version="1.0" encoding="UTF-8" standalone="no"?>
<svg
   xmlns:dc="http://purl.org/dc/elements/1.1/"
   xmlns:cc="http://creativecommons.org/ns#"
   xmlns:rdf="http://www.w3.org/1999/02/22-rdf-syntax-ns#"
   xmlns:svg="http://www.w3.org/2000/svg"
   xmlns="http://www.w3.org/2000/svg"
   id="svg4665"
   version="1.1"
   viewBox="0 0 5.2916665 5.2916668"
   height="20"
   width="20">
  <defs
     id="defs4659" />
  <metadata
     id="metadata4662">
    <rdf:RDF>
      <cc:Work
         rdf:about="">
        <dc:format>image/svg+xml</dc:format>
        <dc:type
           rdf:resource="http://purl.org/dc/dcmitype/StillImage" />
        <dc:title></dc:title>
      </cc:Work>
    </rdf:RDF>
  </metadata>
  <g
     transform="translate(0,-291.70832)"
     id="layer1">
    <g
       style="fill:#be1e2d;fill-opacity:1"
       transform="matrix(0.05584342,0,0,-0.05584342,5.1359752,293.77032)"
       id="g4537">
      <path
         id="path4539"
         style="fill:#be1e2d;fill-opacity:1;fill-rule:nonzero;stroke:none"
         d="M 0,0 V -5.575 -39.55 c 0,-3.686 -3,-6.685 -6.686,-6.685 h -3.432 v 58.95 h 3.432 C -3,12.715 0,9.716 0,6.029 Z m -12.906,-47.279 c 0,-0.551 -0.448,-0.999 -0.998,-0.999 h -4.507 c -0.551,0 -0.999,0.448 -0.999,0.999 v 61.038 c 0,0.551 0.448,0.999 0.999,0.999 h 4.507 c 0.55,0 0.998,-0.448 0.998,-0.999 z m -9.292,1.044 h -44.788 v 45.304 h 0.006 v 9.23 h -0.006 v 4.416 h 44.788 z m -48.575,-2.043 h -4.506 c -0.551,0 -0.999,0.448 -0.999,0.999 v 61.038 c 0,0.551 0.448,0.999 0.999,0.999 h 4.506 c 0.551,0 0.999,-0.448 0.999,-0.999 v -5.46 h -0.046 v -9.23 h 0.046 v -46.348 c 0,-0.552 -0.448,-0.999 -0.999,-0.999 m 34.037,67.842 v -4.061 h -15.712 v 4.061 c 0,0.009 0.01,0.018 0.018,0.018 h 15.676 c 0.009,0 0.018,-0.01 0.018,-0.018 m -23.146,0 c 0,4.109 3.343,7.453 7.452,7.453 h 15.676 c 4.109,0 7.452,-3.344 7.452,-7.453 v -4.061 h -4.646 v 4.061 c 0,1.547 -1.259,2.806 -2.806,2.806 H -52.43 c -1.547,0 -2.806,-1.259 -2.806,-2.806 v -4.061 h -4.646 z m -19.184,-65.799 h -3.432 c -3.687,0 -6.686,2.999 -6.686,6.685 v 11.488 0.672 33.419 c 0,3.687 2.999,6.686 6.686,6.686 h 3.432 z m 72.38,61.738 h -3.861 c -0.632,1.212 -1.898,2.043 -3.357,2.043 h -4.507 c -1.459,0 -2.726,-0.831 -3.358,-2.043 h -4.745 v 4.061 c 0,5.646 -4.594,10.24 -10.24,10.24 H -52.43 c -5.646,0 -10.239,-4.594 -10.239,-10.24 v -4.061 h -4.746 c -0.632,1.212 -1.898,2.043 -3.358,2.043 h -4.506 c -1.459,0 -2.726,-0.831 -3.358,-2.043 h -3.861 c -5.224,0 -9.473,-4.25 -9.473,-9.474 v -29.111 -3.692 -1.231 -1.23 -10.315 c 0,-5.223 4.249,-9.473 9.473,-9.473 h 3.861 c 0.632,-1.212 1.899,-2.043 3.358,-2.043 h 4.506 c 1.46,0 2.726,0.831 3.358,2.043 h 45.646 c 0.632,-1.212 1.899,-2.043 3.358,-2.043 h 4.507 c 1.459,0 2.725,0.831 3.357,2.043 h 3.861 c 5.224,0 9.474,4.25 9.474,9.473 V -5.575 0 6.029 c 0,5.224 -4.25,9.474 -9.474,9.474" />
    </g>
  </g>
</svg>
