<?xml version="1.0" encoding="UTF-8" standalone="no"?>
<svg
   xmlns:dc="http://purl.org/dc/elements/1.1/"
   xmlns:cc="http://creativecommons.org/ns#"
   xmlns:rdf="http://www.w3.org/1999/02/22-rdf-syntax-ns#"
   xmlns:svg="http://www.w3.org/2000/svg"
   xmlns="http://www.w3.org/2000/svg"
   id="svg4665"
   version="1.1"
   viewBox="0 0 5.2916665 5.2916668"
   height="20"
   width="20">
  <defs
     id="defs4659" />
  <metadata
     id="metadata4662">
    <rdf:RDF>
      <cc:Work
         rdf:about="">
        <dc:format>image/svg+xml</dc:format>
        <dc:type
           rdf:resource="http://purl.org/dc/dcmitype/StillImage" />
        <dc:title></dc:title>
      </cc:Work>
    </rdf:RDF>
  </metadata>
  <g
     transform="translate(0,-291.70832)"
     id="layer1">
    <g
       style="fill:#be1e2d;fill-opacity:1"
       transform="matrix(0.05667005,0,0,-0.05666931,4.2396279,296.08009)"
       id="g4545">
      <path
         id="path4547"
         style="fill:#be1e2d;fill-opacity:1;fill-rule:nonzero;stroke:none"
         d="m 0,0 c 0.328,-0.33 0.763,-0.512 1.224,-0.512 1.008,0 1.751,0.743 1.764,1.767 L 3.173,13.55 15.152,6.538 c 0.105,-0.061 0.37,-0.165 0.957,-0.165 0.699,0 1.15,0.249 1.507,0.831 0.238,0.39 0.307,0.853 0.192,1.306 -0.121,0.472 -0.428,0.88 -0.843,1.118 l -11.927,6.893 10.303,6.14 c 0.426,0.209 0.688,0.52 0.82,0.946 0.153,0.499 0.089,1.064 -0.169,1.512 -0.221,0.387 -0.546,0.639 -0.965,0.752 -0.464,0.125 -0.987,0.049 -1.433,-0.21 L 1.436,18.537 -19.198,30.545 1.438,42.426 13.597,35.318 c 0.267,-0.19 0.522,-0.272 0.799,-0.272 0.646,0 1.208,0.31 1.672,0.921 0.185,0.352 0.232,0.939 0.078,1.426 -0.126,0.398 -0.382,0.708 -0.722,0.871 l -10.388,6.181 11.926,6.889 c 0.837,0.484 1.111,1.574 0.623,2.481 -0.204,0.382 -0.564,0.663 -1.01,0.79 -0.481,0.135 -1.001,0.072 -1.427,-0.174 L 3.173,47.481 2.988,59.713 c -0.013,1.023 -0.789,1.824 -1.764,1.824 -0.452,0 -0.886,-0.186 -1.222,-0.526 -0.347,-0.349 -0.544,-0.813 -0.541,-1.273 L -0.432,45.409 -20.965,33.517 v 24.09 l 12.113,6.903 c 0.43,0.245 0.753,0.664 0.887,1.152 0.123,0.45 0.069,0.912 -0.153,1.298 -0.506,0.886 -1.498,1.145 -2.413,0.635 L -20.965,61.7 v 13.633 c 0,0.999 -0.813,1.812 -1.811,1.812 -0.99,0 -1.764,-0.796 -1.764,-1.812 V 61.604 l -10.745,5.989 c -0.893,0.495 -1.865,0.234 -2.362,-0.633 -0.242,-0.422 -0.306,-0.906 -0.182,-1.36 0.127,-0.458 0.432,-0.845 0.86,-1.089 L -24.54,57.509 V 33.634 l -20.956,12.086 0.114,14.019 c 0.046,0.476 -0.086,0.862 -0.389,1.198 -0.344,0.381 -0.827,0.6 -1.325,0.6 -1.019,0 -1.856,-0.815 -1.866,-1.818 l -0.121,-11.926 -11.722,6.733 c -0.438,0.255 -0.93,0.321 -1.393,0.193 -0.432,-0.122 -0.786,-0.404 -0.995,-0.793 -0.515,-0.956 -0.259,-1.98 0.623,-2.489 l 11.814,-6.833 -10.503,-6.292 c -0.432,-0.213 -0.695,-0.526 -0.819,-0.954 -0.145,-0.497 -0.071,-1.036 0.203,-1.479 0.355,-0.584 0.807,-0.833 1.509,-0.833 0.354,0 0.634,0.079 0.936,0.262 L -47.207,42.53 -26.3,30.544 -47.204,18.438 -59.418,25.665 c -0.464,0.272 -1.016,0.347 -1.507,0.206 -0.406,-0.116 -0.731,-0.371 -0.916,-0.719 -0.502,-0.929 -0.253,-1.998 0.577,-2.491 l 10.51,-6.23 -11.812,-6.895 c -0.431,-0.253 -0.734,-0.642 -0.853,-1.099 -0.118,-0.451 -0.044,-0.933 0.205,-1.356 0.385,-0.647 0.819,-0.913 1.498,-0.913 -0.009,0 0.251,0.025 1.054,0.342 l 11.579,6.667 0.121,-11.927 c 0.01,-0.971 0.801,-1.762 1.763,-1.762 0.537,0 0.957,0.159 1.282,0.487 0.349,0.353 0.539,0.837 0.535,1.366 l -0.114,14.008 20.956,11.978 V 3.569 l -12.431,-7.004 c -0.439,-0.248 -0.749,-0.639 -0.872,-1.102 -0.121,-0.447 -0.053,-0.92 0.191,-1.333 0.381,-0.661 0.816,-0.929 1.498,-0.929 0.366,0 0.647,0.059 0.858,0.18 l 10.756,6.097 v -13.943 c 0,-1.025 0.742,-1.768 1.764,-1.768 1.015,0 1.811,0.776 1.811,1.768 v 13.739 l 10.437,-5.889 c 0.21,-0.121 0.491,-0.184 0.816,-0.184 0.759,0 1.234,0.271 1.587,0.906 0.235,0.415 0.295,0.891 0.169,1.34 -0.131,0.471 -0.447,0.869 -0.891,1.118 l -12.118,6.792 v 24.09 L -0.432,15.556 -0.539,1.34 C -0.542,0.83 -0.352,0.354 0,0" />
    </g>
  </g>
</svg>
