<?xml version="1.0" encoding="UTF-8" standalone="no"?>
<svg
   xmlns:dc="http://purl.org/dc/elements/1.1/"
   xmlns:cc="http://creativecommons.org/ns#"
   xmlns:rdf="http://www.w3.org/1999/02/22-rdf-syntax-ns#"
   xmlns:svg="http://www.w3.org/2000/svg"
   xmlns="http://www.w3.org/2000/svg"
   id="svg4665"
   version="1.1"
   viewBox="0 0 5.2916665 5.2916668"
   height="20"
   width="20">
  <defs
     id="defs4659" />
  <metadata
     id="metadata4662">
    <rdf:RDF>
      <cc:Work
         rdf:about="">
        <dc:format>image/svg+xml</dc:format>
        <dc:type
           rdf:resource="http://purl.org/dc/dcmitype/StillImage" />
        <dc:title></dc:title>
      </cc:Work>
    </rdf:RDF>
  </metadata>
  <g
     transform="translate(0,-291.70832)"
     id="layer1">
    <g
       style="fill:#be1e2d;fill-opacity:1"
       transform="matrix(0.0559639,0,0,-0.0559639,5.1467201,296.03215)"
       id="g4517">
      <path
         id="path4519"
         style="fill:#be1e2d;fill-opacity:1;fill-rule:nonzero;stroke:none"
         d="m 0,0 c 0,-4.386 -3.374,-7.94 -7.764,-7.94 h -73.85 c -4.39,0 -7.761,3.554 -7.761,7.94 v 47.924 c 0,4.386 3.374,8.254 7.757,8.254 h 31.271 c 0.719,0 1.126,0.287 1.126,1.002 v 11.301 h 9.067 V 57.18 c 0,-0.715 0.404,-1.002 1.123,-1.002 H -7.764 C -3.374,56.178 0,52.31 0,47.924 Z m -7.76,58.768 h -29.804 v 11.026 c 0,0.718 -0.752,1.277 -1.467,1.277 h -11.312 c -0.719,0 -1.468,-0.559 -1.468,-1.277 V 58.768 h -29.807 c -5.812,0 -10.347,-5.032 -10.347,-10.844 V 0 c 0,-5.815 4.535,-10.53 10.347,-10.53 h 73.854 l -0.097,-0.01 C -2.046,-10.537 2.59,-5.815 2.59,0 v 47.924 c 0,5.812 -4.535,10.844 -10.35,10.844" />
    </g>
    <g
       style="fill:#be1e2d;fill-opacity:1"
       transform="matrix(0.0559639,0,0,-0.0559639,4.7479774,296.03198)"
       id="g4521">
      <path
         id="path4523"
         style="fill:#be1e2d;fill-opacity:1;fill-rule:nonzero;stroke:none"
         d="m 0,0 c 0,-0.23 -0.404,-0.171 -0.635,-0.171 h -73.854 c -0.232,0 -0.636,-0.059 -0.636,0.168 v 47.92 c 0,0.231 0.404,0.484 0.639,0.484 h 73.844 c 0.235,0 0.642,-0.25 0.642,-0.48 z m -0.635,50.991 h -73.861 c -1.654,0 -3.219,-1.417 -3.219,-3.07 V -0.006 c 0,-1.654 1.569,-2.754 3.222,-2.754 h 73.858 c 1.656,0 3.225,1.1 3.225,2.757 v 47.927 c 0,1.65 -1.569,3.067 -3.225,3.067" />
    </g>
    <g
       style="fill:#be1e2d;fill-opacity:1"
       transform="matrix(0.0559639,0,0,-0.0559639,2.3921376,295.35293)"
       id="g4525">
      <path
         id="path4527"
         style="fill:#be1e2d;fill-opacity:1;fill-rule:nonzero;stroke:none"
         d="m 0,0 h -28.015 l -0.006,5.645 c 0.085,0.173 0.626,0.534 0.857,0.661 0.189,0.107 0.36,0.233 0.465,0.306 0.534,0.32 6.236,2.959 9.61,4.541 0.456,0.212 0.899,0.686 0.899,1.189 v 2.669 c 0,0.386 -0.327,0.753 -0.623,1 -0.427,0.35 -1.218,1.087 -1.218,2.036 0,0.041 -0.04,0.082 -0.044,0.124 l -0.111,0.935 c -0.056,0.611 -0.547,1.094 -1.154,1.161 -0.095,0.076 -0.313,0.361 -0.386,0.853 l -0.016,0.083 c -0.067,0.455 0.025,0.775 0.098,0.907 0.259,0.057 0.499,0.197 0.68,0.396 0.247,0.271 0.367,0.632 0.329,0.995 l -0.224,2.281 c 0.031,1.771 1.4,4.519 5.011,4.519 3.612,0 4.982,-2.748 5.01,-4.519 L -9.06,23.501 c -0.035,-0.366 0.085,-0.727 0.332,-0.995 0.18,-0.202 0.417,-0.339 0.68,-0.396 0.069,-0.132 0.164,-0.452 0.096,-0.904 L -7.966,21.117 C -8.038,20.624 -8.25,20.343 -8.345,20.267 -8.952,20.2 -9.434,19.72 -9.493,19.106 l -0.092,-0.933 c -0.003,-0.04 -0.006,-0.085 -0.006,-0.126 0,-0.952 -0.619,-1.686 -1.044,-2.036 -0.297,-0.247 -0.376,-0.614 -0.376,-1 v -2.669 c 0,-0.499 0.194,-0.954 0.642,-1.17 C -6.717,9.43 -1.207,6.77 -0.851,6.584 L -0.863,6.501 C -0.079,6.112 0,5.894 0,5.822 Z m 0.266,8.823 0.041,0.063 c -0.436,0.227 -6.783,3.19 -8.728,4.272 v 1.28 c 0.649,1.019 1.496,2.255 1.515,3.54 l -0.038,0.076 c 0.809,0.502 1.388,1.479 1.565,2.687 v 0.086 c 0.161,1.088 -0.066,2.137 -0.616,2.874 -0.117,0.161 -0.253,0.304 -0.4,0.427 l 0.143,1.47 c 0.004,0.042 0.007,0.086 0.007,0.128 0,2.974 -2.359,7.165 -7.603,7.165 -5.242,0 -7.601,-4.191 -7.601,-7.165 0,-0.045 0,-0.086 0.006,-0.128 l 0.145,-1.47 c -0.145,-0.123 -0.278,-0.266 -0.394,-0.424 -0.551,-0.74 -0.776,-1.787 -0.615,-2.881 l 0.013,-0.086 c 0.181,-1.201 0.781,-2.175 1.591,-2.68 l 0.158,-0.079 c 0.019,-1.282 0.468,-2.518 1.765,-3.54 v -1.274 c -3.239,-1.42 -8.671,-4.009 -9.18,-4.351 -0.079,-0.053 -0.181,-0.108 -0.295,-0.17 -0.711,-0.392 -2.184,-1.206 -2.184,-2.821 v -6.856 c 0,-0.715 0.417,-1.556 1.131,-1.556 H 1.609 c 0.715,0 0.981,0.841 0.981,1.556 v 6.856 c 0,1.771 -1.581,2.631 -2.324,3.001" />
    </g>
    <g
       style="fill:#be1e2d;fill-opacity:1"
       transform="matrix(0.0559639,0,0,-0.0559639,4.3285725,294.26562)"
       id="g4529">
      <path
         id="path4531"
         style="fill:#be1e2d;fill-opacity:1;fill-rule:nonzero;stroke:none"
         d="m 0,0 h -30.162 c -1.362,0 -2.473,0.904 -2.473,2.268 0,1.365 1.111,2.267 2.473,2.267 H 0 C 1.363,4.535 2.473,3.633 2.473,2.268 2.473,0.904 1.363,0 0,0 m 0,7.125 h -30.162 c -2.792,0 -5.063,-2.065 -5.063,-4.857 0,-2.792 2.271,-4.858 5.063,-4.858 H 0 c 2.792,0 5.062,2.066 5.062,4.858 0,2.792 -2.27,4.857 -5.062,4.857" />
    </g>
    <g
       style="fill:#be1e2d;fill-opacity:1"
       transform="matrix(0.0559639,0,0,-0.0559639,4.3285725,295.02677)"
       id="g4533">
      <path
         id="path4535"
         style="fill:#be1e2d;fill-opacity:1;fill-rule:nonzero;stroke:none"
         d="m 0,0 h -20.734 c -1.368,0 -2.477,1.227 -2.477,2.594 0,1.362 1.109,2.589 2.477,2.589 H 0 C 1.363,5.183 2.473,3.956 2.473,2.594 2.473,1.227 1.363,0 0,0 m 0,7.772 h -20.734 c -2.793,0 -5.067,-2.386 -5.067,-5.178 0,-2.793 2.274,-5.184 5.067,-5.184 H 0 c 2.792,0 5.062,2.391 5.062,5.184 0,2.792 -2.27,5.178 -5.062,5.178" />
    </g>
  </g>
</svg>
